<?xml version="1.0" encoding="UTF-8" standalone="no"?>
<!-- Created with Inkscape (http://www.inkscape.org/) -->

<svg
   xmlns:dc="http://purl.org/dc/elements/1.1/"
   xmlns:cc="http://creativecommons.org/ns#"
   xmlns:rdf="http://www.w3.org/1999/02/22-rdf-syntax-ns#"
   xmlns:svg="http://www.w3.org/2000/svg"
   xmlns="http://www.w3.org/2000/svg"
   xmlns:sodipodi="http://sodipodi.sourceforge.net/DTD/sodipodi-0.dtd"
   xmlns:inkscape="http://www.inkscape.org/namespaces/inkscape"
   width="139.09091mm"
   height="180mm"
   viewBox="0 0 139.09091 180"
   version="1.1"
   id="svg8"
   sodipodi:docname="early.svg"
   inkscape:version="0.92.4 (5da689c313, 2019-01-14)">
  <defs
     id="defs2" />
  <sodipodi:namedview
     id="base"
     pagecolor="#ffffff"
     bordercolor="#666666"
     borderopacity="1.0"
     inkscape:pageopacity="0.0"
     inkscape:pageshadow="2"
     inkscape:zoom="1.4"
     inkscape:cx="60.77595"
     inkscape:cy="314.771"
     inkscape:document-units="mm"
     inkscape:current-layer="layer2"
     showgrid="false"
     inkscape:window-width="2256"
     inkscape:window-height="1410"
     inkscape:window-x="-11"
     inkscape:window-y="-11"
     inkscape:window-maximized="1"
     fit-margin-top="0"
     fit-margin-left="0"
     fit-margin-right="0"
     fit-margin-bottom="0" />
  <metadata
     id="metadata5">
    <rdf:RDF>
      <cc:Work
         rdf:about="">
        <dc:format>image/svg+xml</dc:format>
        <dc:type
           rdf:resource="http://purl.org/dc/dcmitype/StillImage" />
        <dc:title></dc:title>
      </cc:Work>
    </rdf:RDF>
  </metadata>
  <g
     inkscape:label="Layer 1"
     inkscape:groupmode="layer"
     id="layer1"
     transform="translate(-20.774515,-10.815234)">
    <g
       id="g23"
       transform="matrix(3.4090909,0,0,3.4090909,-68.202757,-62.139311)"
       style="fill:#4838cc;fill-opacity:1">
      <path
         id="path21"
         d="m 66.9,41.8 c 0,-11.3 -9.1,-20.4 -20.4,-20.4 -11.3,0 -20.4,9.1 -20.4,20.4 0,11.3 20.4,32.4 20.4,32.4 0,0 20.4,-21.1 20.4,-32.4 z M 37,41.4 c 0,-5.2 4.3,-9.5 9.5,-9.5 5.2,0 9.5,4.2 9.5,9.5 0,5.2 -4.2,9.5 -9.5,9.5 -5.2,0 -9.5,-4.3 -9.5,-9.5 z"
         inkscape:connector-curvature="0"
         style="fill:#4838cc;fill-opacity:1" />
    </g>
    <path
       style="fill:#ffffff;stroke-width:0.44352594"
       d="M 83.833726,133.06063 C 76.174683,132.12766 66.351732,128.30989 59.83213,123.73255 48.209047,115.57201 40.304768,103.5672 37.376052,89.626809 36.200195,84.030097 36.329167,73.491088 37.643976,67.701687 42.341512,47.020125 58.148465,31.164547 78.889898,26.328982 c 5.611479,-1.308229 14.109208,-1.581671 20.054205,-0.645268 11.391387,1.794237 20.802427,6.428251 29.263837,14.409539 8.11038,7.650208 13.26899,16.78279 15.82182,28.010438 1.15641,5.085602 1.16928,17.253151 0.0254,22.251347 -3.64634,15.908242 -13.24896,28.745832 -27.2964,36.492212 -9.79296,5.40017 -21.485649,7.60684 -32.923419,6.21338 z"
       id="path65"
       inkscape:connector-curvature="0" />
  </g>
  <g
     inkscape:groupmode="layer"
     id="layer2"
     inkscape:label="Layer 2"
     transform="translate(-20.774515,-10.815234)">
    <path
       id="path44"
       d="m 120.93405,37.791521 q 1.21451,0 2.10238,0.888141 0.88824,0.88775 0.88824,2.102415 v 77.783753 q 0,1.2163 -0.88824,2.10252 -0.88823,0.88733 -2.10238,0.88733 H 61.100897 q -1.214532,0 -2.102544,-0.88733 -0.888252,-0.88733 -0.888252,-2.10252 V 40.782077 q 0,-1.215036 0.888252,-2.102415 0.888235,-0.888141 2.102544,-0.888141 z M 82.041948,51.252489 v 2.990425 q 0,0.654496 0.420143,1.081041 0.420125,0.427735 1.079739,0.420032 h 2.990344 q 0.654207,0 1.07252,-0.420032 0.418324,-0.420051 0.418324,-1.081041 v -2.990425 q 0,-0.651966 -0.418324,-1.070716 -0.420116,-0.42005 -1.07252,-0.42005 H 83.54183 q -0.652283,0 -1.079739,0.42005 -0.427549,0.420034 -0.420143,1.070716 z m 0,11.969812 v 2.990424 q 0,0.655817 0.420143,1.072017 0.420125,0.420033 1.079739,0.420033 h 2.990344 q 0.654207,0 1.07252,-0.420033 0.418324,-0.420052 0.418324,-1.072017 v -2.990424 q 0,-0.653288 -0.418324,-1.081023 -0.420116,-0.427753 -1.07252,-0.417501 H 83.54183 q -0.652283,0 -1.079739,0.417501 -0.427549,0.420033 -0.420143,1.081023 z m 0,11.961513 v 2.99048 q 0,0.6622 0.420143,1.081022 0.420125,0.419846 1.079739,0.419846 h 2.990344 q 0.654207,0 1.07252,-0.419846 0.418324,-0.419827 0.418324,-1.081022 v -2.99048 q 0,-0.656116 -0.418324,-1.071998 -0.420116,-0.419828 -1.07252,-0.419828 H 83.54183 q -0.652283,0 -1.079739,0.419828 -0.427549,0.419847 -0.420143,1.071998 z m 0,11.970012 v 2.990484 q 0,0.656118 0.420143,1.072092 0.420125,0.419849 1.079739,0.427961 h 2.990344 q 0.654207,0 1.07252,-0.427961 0.418324,-0.427935 0.418324,-1.072092 v -2.990484 q 0,-0.654084 -0.418324,-1.071995 -0.420116,-0.419848 -1.07252,-0.42796 H 83.54183 q -0.652283,0 -1.079739,0.42796 -0.427549,0.427936 -0.420143,1.071995 z m -5.98074,14.960274 v -2.998475 q 0,-0.656118 -0.420032,-1.071994 -0.418525,-0.417826 -1.079757,-0.417826 h -2.99035 q -0.654198,0 -1.072519,0.417826 -0.420145,0.419822 -0.420145,1.071994 v 2.998475 q 0,0.65411 0.420145,1.07211 0.418507,0.41983 1.072519,0.41983 h 2.99035 q 0.652283,0 1.079757,-0.41983 0.427531,-0.41983 0.420032,-1.07211 z m 0,-11.96979 v -2.990484 q 0,-0.654084 -0.420032,-1.071995 -0.418525,-0.419848 -1.079757,-0.42796 h -2.99035 q -0.654198,0 -1.072519,0.42796 -0.420145,0.427936 -0.420145,1.071995 v 2.990484 q 0,0.656118 0.420145,1.072092 0.418507,0.419849 1.072519,0.427961 h 2.99035 q 0.652283,0 1.079757,-0.427961 0.427531,-0.427935 0.420032,-1.072092 z m 0,-11.970016 v -2.99048 q 0,-0.656116 -0.420032,-1.071998 -0.418525,-0.419828 -1.079757,-0.419828 h -2.99035 q -0.654198,0 -1.072519,0.419828 -0.420145,0.419847 -0.420145,1.071998 v 2.99048 q 0,0.6622 0.420145,1.081022 0.418507,0.419846 1.072519,0.419846 h 2.99035 q 0.652283,0 1.079757,-0.419846 0.427531,-0.419827 0.420032,-1.081022 z m 0,-11.961569 v -2.990424 q 0,-0.653288 -0.420032,-1.081023 -0.418525,-0.427753 -1.079757,-0.417501 h -2.99035 q -0.654198,0 -1.072519,0.417501 -0.420145,0.420033 -0.420145,1.081023 v 2.990424 q 0,0.655817 0.420145,1.072017 0.418507,0.420033 1.072519,0.420033 h 2.99035 q 0.652283,0 1.079757,-0.420033 0.427531,-0.420052 0.420032,-1.072017 z m 0,-11.969811 v -2.990425 q 0,-0.651966 -0.420032,-1.070716 -0.418525,-0.42005 -1.079757,-0.42005 h -2.99035 q -0.654198,0 -1.072519,0.42005 -0.420145,0.420034 -0.420145,1.070716 v 2.990425 q 0,0.654496 0.420145,1.081041 0.418507,0.427735 1.072519,0.420032 h 2.99035 q 0.652283,0 1.079757,-0.420032 0.427531,-0.420051 0.420032,-1.081041 z M 99.992829,114.0758 v -8.97122 q 0,-0.65611 -0.420124,-1.08102 -0.420055,-0.42796 -1.079755,-0.41985 H 83.541122 q -0.654198,0 -1.079757,0.41985 -0.42753,0.41982 -0.420125,1.08102 v 8.97122 q 0,0.65612 0.420125,1.07079 0.420145,0.41982 1.079757,0.42794 H 98.49295 q 0.6616,0 1.079755,-0.42794 0.420124,-0.42796 0.420124,-1.07079 z m 0,-23.93149 v -2.990484 q 0,-0.654084 -0.420124,-1.071995 -0.420055,-0.419848 -1.079755,-0.42796 h -2.990349 q -0.654207,0 -1.072543,0.42796 -0.42014,0.427936 -0.42014,1.071995 v 2.990484 q 0,0.656118 0.42014,1.072092 0.418422,0.419849 1.072543,0.427961 h 2.990349 q 0.6616,0 1.079755,-0.427961 0.420124,-0.427935 0.420124,-1.072092 z m 0,-11.970016 v -2.99048 q 0,-0.656116 -0.420124,-1.071998 -0.420055,-0.419828 -1.079755,-0.419828 h -2.990349 q -0.654207,0 -1.072543,0.419828 -0.42014,0.419847 -0.42014,1.071998 v 2.99048 q 0,0.6622 0.42014,1.081022 0.418422,0.419846 1.072543,0.419846 h 2.990349 q 0.6616,0 1.079755,-0.419846 0.420124,-0.419827 0.420124,-1.081022 z m 0,-11.961569 v -2.990424 q 0,-0.653288 -0.420124,-1.081023 -0.420055,-0.427753 -1.079755,-0.417501 h -2.990349 q -0.654207,0 -1.072543,0.417501 -0.42014,0.420033 -0.42014,1.081023 v 2.990424 q 0,0.655817 0.42014,1.072017 0.418422,0.420033 1.072543,0.420033 h 2.990349 q 0.6616,0 1.079755,-0.420033 0.420124,-0.420052 0.420124,-1.072017 z m 0,-11.969811 v -2.990425 q 0,-0.651966 -0.420124,-1.070716 -0.420055,-0.42005 -1.079755,-0.42005 h -2.990349 q -0.654207,0 -1.072543,0.42005 -0.42014,0.420034 -0.42014,1.070716 v 2.990425 q 0,0.654496 0.42014,1.081041 0.418422,0.427735 1.072543,0.420032 h 2.990349 q 0.6616,0 1.079755,-0.420032 0.420124,-0.420051 0.420124,-1.081041 z M 111.96277,102.1141 v -2.998475 q 0,-0.656118 -0.42755,-1.071994 -0.42753,-0.417826 -1.07252,-0.417826 h -2.99025 q -0.65421,0 -1.07254,0.417826 -0.42004,0.419822 -0.42755,1.071994 v 2.998475 q 0,0.65411 0.42755,1.07211 0.42755,0.41983 1.07254,0.41983 h 2.99036 q 0.6542,0 1.07252,-0.41983 0.42015,-0.41983 0.42756,-1.07211 z m 0,-11.96979 v -2.990484 q 0,-0.654084 -0.42755,-1.071995 -0.42753,-0.419848 -1.07252,-0.42796 h -2.99025 q -0.65421,0 -1.07254,0.42796 -0.42004,0.427936 -0.42755,1.071995 v 2.990484 q 0,0.656118 0.42755,1.072092 0.42755,0.419849 1.07254,0.427961 h 2.99036 q 0.6542,0 1.07252,-0.427961 0.42015,-0.427935 0.42756,-1.072092 z m 0,-11.970016 v -2.99048 q 0,-0.656116 -0.42755,-1.071998 -0.42753,-0.419828 -1.07252,-0.419828 h -2.99025 q -0.65421,0 -1.07254,0.419828 -0.42004,0.419847 -0.42755,1.071998 v 2.99048 q 0,0.6622 0.42755,1.081022 0.42755,0.419846 1.07254,0.419846 h 2.99036 q 0.6542,0 1.07252,-0.419846 0.42015,-0.419827 0.42756,-1.081022 z m 0,-11.961569 v -2.990424 q 0,-0.653288 -0.42755,-1.081023 -0.42753,-0.427753 -1.07252,-0.417501 h -2.99025 q -0.65421,0 -1.07254,0.417501 -0.42004,0.420033 -0.42755,1.081023 v 2.990424 q 0,0.655817 0.42755,1.072017 0.42755,0.420033 1.07254,0.420033 h 2.99036 q 0.6542,0 1.07252,-0.420033 0.42015,-0.420052 0.42756,-1.072017 z m 0,-11.969811 v -2.990425 q 0,-0.651966 -0.42755,-1.070716 -0.42753,-0.42005 -1.07252,-0.42005 h -2.99025 q -0.65421,0 -1.07254,0.42005 -0.42004,0.420034 -0.42755,1.070716 v 2.990425 q 0,0.654496 0.42755,1.081041 0.42755,0.427735 1.07254,0.420032 h 2.99036 q 0.6542,0 1.07252,-0.420032 0.42015,-0.420051 0.42756,-1.081041 z"
       inkscape:connector-curvature="0"
       style="fill:#4838cc;fill-opacity:1;stroke-width:0.0837646" />
  </g>
</svg>
