<?xml version="1.0" encoding="UTF-8" standalone="no"?>
<!-- Created with Inkscape (http://www.inkscape.org/) -->

<svg
   xmlns:dc="http://purl.org/dc/elements/1.1/"
   xmlns:cc="http://creativecommons.org/ns#"
   xmlns:rdf="http://www.w3.org/1999/02/22-rdf-syntax-ns#"
   xmlns:svg="http://www.w3.org/2000/svg"
   xmlns="http://www.w3.org/2000/svg"
   xmlns:sodipodi="http://sodipodi.sourceforge.net/DTD/sodipodi-0.dtd"
   xmlns:inkscape="http://www.inkscape.org/namespaces/inkscape"
   width="139.09091mm"
   height="180mm"
   viewBox="0 0 139.09091 180"
   version="1.1"
   id="svg8"
   sodipodi:docname="late.svg"
   inkscape:version="0.92.4 (5da689c313, 2019-01-14)">
  <defs
     id="defs2" />
  <sodipodi:namedview
     id="base"
     pagecolor="#ffffff"
     bordercolor="#666666"
     borderopacity="1.0"
     inkscape:pageopacity="0.0"
     inkscape:pageshadow="2"
     inkscape:zoom="1.4"
     inkscape:cx="198.51517"
     inkscape:cy="314.771"
     inkscape:document-units="mm"
     inkscape:current-layer="layer2"
     showgrid="false"
     inkscape:window-width="2256"
     inkscape:window-height="1410"
     inkscape:window-x="-11"
     inkscape:window-y="-11"
     inkscape:window-maximized="1"
     fit-margin-top="0"
     fit-margin-left="0"
     fit-margin-right="0"
     fit-margin-bottom="0" />
  <metadata
     id="metadata5">
    <rdf:RDF>
      <cc:Work
         rdf:about="">
        <dc:format>image/svg+xml</dc:format>
        <dc:type
           rdf:resource="http://purl.org/dc/dcmitype/StillImage" />
        <dc:title></dc:title>
      </cc:Work>
    </rdf:RDF>
  </metadata>
  <g
     inkscape:label="Layer 1"
     inkscape:groupmode="layer"
     id="layer1"
     transform="translate(-46.33086,-10.815234)">
    <g
       id="g23"
       transform="matrix(3.4090909,0,0,3.4090909,-42.646412,-62.139311)"
       style="fill:#575556;fill-opacity:1">
      <path
         id="path21"
         d="m 66.9,41.8 c 0,-11.3 -9.1,-20.4 -20.4,-20.4 -11.3,0 -20.4,9.1 -20.4,20.4 0,11.3 20.4,32.4 20.4,32.4 0,0 20.4,-21.1 20.4,-32.4 z M 37,41.4 c 0,-5.2 4.3,-9.5 9.5,-9.5 5.2,0 9.5,4.2 9.5,9.5 0,5.2 -4.2,9.5 -9.5,9.5 -5.2,0 -9.5,-4.3 -9.5,-9.5 z"
         inkscape:connector-curvature="0"
         style="fill:#575556;fill-opacity:1" />
    </g>
    <path
       style="fill:#ffffff;stroke-width:0.44352594"
       d="m 109.39007,133.06063 c -7.65904,-0.93297 -17.481993,-4.75074 -24.001595,-9.32808 -11.623083,-8.16054 -19.527362,-20.16534 -22.456078,-34.105742 -1.175856,-5.596711 -1.046885,-16.13572 0.267924,-21.925121 4.697535,-20.681562 20.504488,-36.53714 41.245919,-41.372705 5.61148,-1.30823 14.10921,-1.581671 20.05421,-0.645268 11.39138,1.794237 20.80242,6.428251 29.26384,14.409539 8.11038,7.650208 13.26898,16.78279 15.82181,28.010438 1.15641,5.085601 1.16928,17.253151 0.0253,22.251346 -3.64634,15.908243 -13.24896,28.745833 -27.29641,36.492223 -9.79295,5.40016 -21.48564,7.60683 -32.92341,6.21337 z"
       id="path65"
       inkscape:connector-curvature="0" />
  </g>
  <g
     inkscape:groupmode="layer"
     id="layer2"
     inkscape:label="Layer 2"
     transform="translate(-46.33086,-10.815234)">
    <path
       id="path44"
       d="m 146.49039,37.791521 q 1.21451,0 2.10238,0.888141 0.88825,0.88775 0.88825,2.102414 v 77.783754 q 0,1.2163 -0.88825,2.10252 -0.88823,0.88733 -2.10238,0.88733 H 86.657242 q -1.214532,0 -2.102544,-0.88733 -0.888252,-0.88733 -0.888252,-2.10252 V 40.782076 q 0,-1.215036 0.888252,-2.102414 0.888235,-0.888141 2.102544,-0.888141 z m -38.8921,13.460968 v 2.990425 q 0,0.654496 0.42015,1.081041 0.42012,0.427735 1.07973,0.420031 h 2.99035 q 0.65421,0 1.07252,-0.420031 0.41832,-0.420051 0.41832,-1.081041 v -2.990425 q 0,-0.651966 -0.41832,-1.070715 -0.42012,-0.420051 -1.07252,-0.420051 h -2.99035 q -0.65228,0 -1.07973,0.420051 -0.42755,0.420033 -0.42015,1.070715 z m 0,11.969812 v 2.990425 q 0,0.655816 0.42015,1.072016 0.42012,0.420033 1.07973,0.420033 h 2.99035 q 0.65421,0 1.07252,-0.420033 0.41832,-0.420051 0.41832,-1.072016 v -2.990425 q 0,-0.653288 -0.41832,-1.081023 -0.42012,-0.427753 -1.07252,-0.417502 h -2.99035 q -0.65228,0 -1.07973,0.417502 -0.42755,0.420033 -0.42015,1.081023 z m 0,11.961513 v 2.990481 q 0,0.662199 0.42015,1.081021 0.42012,0.419846 1.07973,0.419846 h 2.99035 q 0.65421,0 1.07252,-0.419846 0.41832,-0.419827 0.41832,-1.081021 v -2.990481 q 0,-0.656115 -0.41832,-1.071998 -0.42012,-0.419829 -1.07252,-0.419829 h -2.99035 q -0.65228,0 -1.07973,0.419829 -0.42755,0.419846 -0.42015,1.071998 z m 0,11.970012 v 2.990484 q 0,0.656118 0.42015,1.072093 0.42012,0.419847 1.07973,0.42796 h 2.99035 q 0.65421,0 1.07252,-0.42796 0.41832,-0.427936 0.41832,-1.072093 v -2.990484 q 0,-0.654084 -0.41832,-1.071995 -0.42012,-0.419848 -1.07252,-0.42796 h -2.99035 q -0.65228,0 -1.07973,0.42796 -0.42755,0.427936 -0.42015,1.071995 z m -5.98074,14.960274 v -2.998474 q 0,-0.656119 -0.42003,-1.071996 -0.41852,-0.417826 -1.07976,-0.417826 h -2.990346 q -0.654199,0 -1.072519,0.417826 -0.420145,0.419823 -0.420145,1.071996 v 2.998474 q 0,0.65411 0.420145,1.07212 0.418506,0.41982 1.072519,0.41982 h 2.990346 q 0.65229,0 1.07976,-0.41982 0.42753,-0.41984 0.42003,-1.07212 z m 0,-11.96979 v -2.990484 q 0,-0.654084 -0.42003,-1.071995 -0.41852,-0.419848 -1.07976,-0.42796 h -2.990346 q -0.654199,0 -1.072519,0.42796 -0.420145,0.427936 -0.420145,1.071995 v 2.990484 q 0,0.656118 0.420145,1.072093 0.418506,0.419847 1.072519,0.42796 h 2.990346 q 0.65229,0 1.07976,-0.42796 0.42753,-0.427936 0.42003,-1.072093 z m 0,-11.970015 v -2.990481 q 0,-0.656115 -0.42003,-1.071998 -0.41852,-0.419829 -1.07976,-0.419829 h -2.990346 q -0.654199,0 -1.072519,0.419829 -0.420145,0.419846 -0.420145,1.071998 v 2.990481 q 0,0.662199 0.420145,1.081021 0.418506,0.419846 1.072519,0.419846 h 2.990346 q 0.65229,0 1.07976,-0.419846 0.42753,-0.419827 0.42003,-1.081021 z m 0,-11.961569 v -2.990425 q 0,-0.653288 -0.42003,-1.081023 -0.41852,-0.427753 -1.07976,-0.417502 h -2.990346 q -0.654199,0 -1.072519,0.417502 -0.420145,0.420033 -0.420145,1.081023 v 2.990425 q 0,0.655816 0.420145,1.072016 0.418506,0.420033 1.072519,0.420033 h 2.990346 q 0.65229,0 1.07976,-0.420033 0.42753,-0.420051 0.42003,-1.072016 z m 0,-11.969812 v -2.990425 q 0,-0.651966 -0.42003,-1.070715 -0.41852,-0.420051 -1.07976,-0.420051 h -2.990346 q -0.654199,0 -1.072519,0.420051 -0.420145,0.420033 -0.420145,1.070715 v 2.990425 q 0,0.654496 0.420145,1.081041 0.418506,0.427735 1.072519,0.420031 h 2.990346 q 0.65229,0 1.07976,-0.420031 0.42753,-0.420051 0.42003,-1.081041 z m 23.93163,59.832886 v -8.97122 q 0,-0.65612 -0.42013,-1.08102 -0.42006,-0.42796 -1.07975,-0.41985 h -14.95183 q -0.6542,0 -1.07976,0.41985 -0.42753,0.41982 -0.42013,1.08102 v 8.97122 q 0,0.65612 0.42013,1.07079 0.42014,0.41982 1.07976,0.42794 h 14.95183 q 0.6616,0 1.07975,-0.42794 0.42013,-0.42796 0.42013,-1.07079 z m 0,-23.93149 v -2.990484 q 0,-0.654084 -0.42013,-1.071995 -0.42006,-0.419848 -1.07975,-0.42796 h -2.99035 q -0.65421,0 -1.07255,0.42796 -0.42014,0.427936 -0.42014,1.071995 v 2.990484 q 0,0.656118 0.42014,1.072093 0.41842,0.419847 1.07255,0.42796 h 2.99035 q 0.6616,0 1.07975,-0.42796 0.42013,-0.427936 0.42013,-1.072093 z m 0,-11.970015 v -2.990481 q 0,-0.656115 -0.42013,-1.071998 -0.42006,-0.419829 -1.07975,-0.419829 h -2.99035 q -0.65421,0 -1.07255,0.419829 -0.42014,0.419846 -0.42014,1.071998 v 2.990481 q 0,0.662199 0.42014,1.081021 0.41842,0.419846 1.07255,0.419846 h 2.99035 q 0.6616,0 1.07975,-0.419846 0.42013,-0.419827 0.42013,-1.081021 z m 0,-11.961569 v -2.990425 q 0,-0.653288 -0.42013,-1.081023 -0.42006,-0.427753 -1.07975,-0.417502 h -2.99035 q -0.65421,0 -1.07255,0.417502 -0.42014,0.420033 -0.42014,1.081023 v 2.990425 q 0,0.655816 0.42014,1.072016 0.41842,0.420033 1.07255,0.420033 h 2.99035 q 0.6616,0 1.07975,-0.420033 0.42013,-0.420051 0.42013,-1.072016 z m 0,-11.969812 v -2.990425 q 0,-0.651966 -0.42013,-1.070715 -0.42006,-0.420051 -1.07975,-0.420051 h -2.99035 q -0.65421,0 -1.07255,0.420051 -0.42014,0.420033 -0.42014,1.070715 v 2.990425 q 0,0.654496 0.42014,1.081041 0.41842,0.427735 1.07255,0.420031 h 2.99035 q 0.6616,0 1.07975,-0.420031 0.42013,-0.420051 0.42013,-1.081041 z m 11.96993,47.871186 v -2.998474 q 0,-0.656119 -0.42754,-1.071996 -0.42754,-0.417826 -1.07252,-0.417826 h -2.99025 q -0.65421,0 -1.07255,0.417826 -0.42003,0.419823 -0.42754,1.071996 v 2.998474 q 0,0.65411 0.42754,1.07212 0.42755,0.41982 1.07255,0.41982 h 2.99036 q 0.6542,0 1.07252,-0.41982 0.42015,-0.41984 0.42756,-1.07212 z m 0,-11.96979 v -2.990484 q 0,-0.654084 -0.42754,-1.071995 -0.42754,-0.419848 -1.07252,-0.42796 h -2.99025 q -0.65421,0 -1.07255,0.42796 -0.42003,0.427936 -0.42754,1.071995 v 2.990484 q 0,0.656118 0.42754,1.072093 0.42755,0.419847 1.07255,0.42796 h 2.99036 q 0.6542,0 1.07252,-0.42796 0.42015,-0.427936 0.42756,-1.072093 z m 0,-11.970015 v -2.990481 q 0,-0.656115 -0.42754,-1.071998 -0.42754,-0.419829 -1.07252,-0.419829 h -2.99025 q -0.65421,0 -1.07255,0.419829 -0.42003,0.419846 -0.42754,1.071998 v 2.990481 q 0,0.662199 0.42754,1.081021 0.42755,0.419846 1.07255,0.419846 h 2.99036 q 0.6542,0 1.07252,-0.419846 0.42015,-0.419827 0.42756,-1.081021 z m 0,-11.961569 v -2.990425 q 0,-0.653288 -0.42754,-1.081023 -0.42754,-0.427753 -1.07252,-0.417502 h -2.99025 q -0.65421,0 -1.07255,0.417502 -0.42003,0.420033 -0.42754,1.081023 v 2.990425 q 0,0.655816 0.42754,1.072016 0.42755,0.420033 1.07255,0.420033 h 2.99036 q 0.6542,0 1.07252,-0.420033 0.42015,-0.420051 0.42756,-1.072016 z m 0,-11.969812 v -2.990425 q 0,-0.651966 -0.42754,-1.070715 -0.42754,-0.420051 -1.07252,-0.420051 h -2.99025 q -0.65421,0 -1.07255,0.420051 -0.42003,0.420033 -0.42754,1.070715 v 2.990425 q 0,0.654496 0.42754,1.081041 0.42755,0.427735 1.07255,0.420031 h 2.99036 q 0.6542,0 1.07252,-0.420031 0.42015,-0.420051 0.42756,-1.081041 z"
       inkscape:connector-curvature="0"
       style="fill:#575556;fill-opacity:1;stroke-width:0.08376461" />
  </g>
</svg>
